<svg width="150" height="25" viewBox="0 0 150 25" fill="none" xmlns="http://www.w3.org/2000/svg">
<path fill-rule="evenodd" clip-rule="evenodd" d="M53.6907 21.0387C54.7547 21.6547 55.94 21.9627 57.2467 21.9627C58.5533 21.9627 59.7387 21.6547 60.8027 21.0387C61.8667 20.4227 62.7036 19.5796 63.3133 18.5093C63.9231 17.4391 64.228 16.2631 64.228 14.9813C64.228 13.6995 63.9231 12.5236 63.3133 11.4533C62.7036 10.3831 61.8667 9.54 60.8027 8.924C59.7387 8.308 58.5533 8 57.2467 8C55.94 8 54.7547 8.308 53.6907 8.924C52.6267 9.54 51.7898 10.3831 51.18 11.4533C50.5702 12.5236 50.2653 13.6995 50.2653 14.9813C50.2653 16.2631 50.5702 17.4391 51.18 18.5093C51.7898 19.5796 52.6267 20.4227 53.6907 21.0387ZM44.2267 8.29867H39V21.664H44.4133C45.2222 21.664 45.9596 21.5116 46.6253 21.2067C47.2911 20.9018 47.82 20.4662 48.212 19.9C48.604 19.3338 48.8 18.6836 48.8 17.9493C48.8 17.1902 48.5947 16.54 48.184 15.9987C47.7733 15.4573 47.2196 15.0622 46.5227 14.8133V14.664C47.0578 14.4027 47.4902 14.0262 47.82 13.5347C48.1498 13.0431 48.3147 12.4613 48.3147 11.7893C48.3147 11.1547 48.1342 10.5698 47.7733 10.0347C47.4124 9.49955 46.9178 9.07645 46.2893 8.76533C45.6609 8.45422 44.9733 8.29867 44.2267 8.29867ZM45.356 13.292C45.0262 13.5969 44.5876 13.7493 44.04 13.7493H41.52V10.5573H44.1147C44.6373 10.5573 45.0573 10.7098 45.3747 11.0147C45.692 11.3196 45.8507 11.696 45.8507 12.144C45.8507 12.6044 45.6858 12.9871 45.356 13.292ZM44.32 19.368C44.9298 19.368 45.4058 19.2093 45.748 18.892C46.0902 18.5747 46.2613 18.1609 46.2613 17.6507C46.2613 17.1404 46.0871 16.7236 45.7387 16.4C45.3902 16.0764 44.8924 15.9147 44.2453 15.9147H41.52V19.368H44.32ZM57.2467 19.5733C58.068 19.5733 58.8209 19.3804 59.5053 18.9947C60.1898 18.6089 60.728 18.0676 61.12 17.3707C61.512 16.6738 61.708 15.8773 61.708 14.9813C61.708 14.0853 61.512 13.2889 61.12 12.592C60.728 11.8951 60.1898 11.3538 59.5053 10.968C58.8209 10.5822 58.068 10.3893 57.2467 10.3893C56.4253 10.3893 55.6756 10.5822 54.9973 10.968C54.3191 11.3538 53.784 11.8951 53.392 12.592C53 13.2889 52.804 14.0853 52.804 14.9813C52.804 15.8773 53 16.6738 53.392 17.3707C53.784 18.0676 54.3191 18.6089 54.9973 18.9947C55.6756 19.3804 56.4253 19.5733 57.2467 19.5733ZM69.044 21.0387C70.108 21.6547 71.2933 21.9627 72.6 21.9627C73.9067 21.9627 75.092 21.6547 76.156 21.0387C77.22 20.4227 78.0569 19.5796 78.6667 18.5093C79.2764 17.4391 79.5813 16.2631 79.5813 14.9813C79.5813 13.6995 79.2764 12.5236 78.6667 11.4533C78.0569 10.3831 77.22 9.54 76.156 8.924C75.092 8.308 73.9067 8 72.6 8C71.2933 8 70.108 8.308 69.044 8.924C67.98 9.54 67.1431 10.3831 66.5333 11.4533C65.9236 12.5236 65.6187 13.6995 65.6187 14.9813C65.6187 16.2631 65.9236 17.4391 66.5333 18.5093C67.1431 19.5796 67.98 20.4227 69.044 21.0387ZM72.6 19.5733C73.4213 19.5733 74.1742 19.3804 74.8587 18.9947C75.5431 18.6089 76.0813 18.0676 76.4733 17.3707C76.8653 16.6738 77.0613 15.8773 77.0613 14.9813C77.0613 14.0853 76.8653 13.2889 76.4733 12.592C76.0813 11.8951 75.5431 11.3538 74.8587 10.968C74.1742 10.5822 73.4213 10.3893 72.6 10.3893C71.7787 10.3893 71.0289 10.5822 70.3507 10.968C69.6724 11.3538 69.1373 11.8951 68.7453 12.592C68.3533 13.2889 68.1573 14.0853 68.1573 14.9813C68.1573 15.8773 68.3533 16.6738 68.7453 17.3707C69.1373 18.0676 69.6724 18.6089 70.3507 18.9947C71.0289 19.3804 71.7787 19.5733 72.6 19.5733ZM84.3507 8.29867H81.8307V21.664H84.3507V17.744L85.8627 15.9707L89.8573 21.664H92.9373V21.5147L87.5987 13.9733L92.4333 8.448V8.29867H89.3907L84.5 14.0293H84.3507V8.29867ZM95.7778 8H99.0258L102.572 17.3893H102.722L106.268 8H109.535V21.3653H107.034V14.776L107.183 12.5547H107.034L103.636 21.3653H101.676L98.2604 12.5547H98.1111L98.2604 14.776V21.3653H95.7778V8ZM119.472 8H116.579L111.576 21.3653H114.357L115.477 18.1733H120.592L121.712 21.3653H124.493L119.472 8ZM119.771 15.8587L118.595 12.4987L118.109 10.8933H117.96L117.475 12.4987L116.28 15.8587H119.771ZM131.425 8H126.553V21.3653H129.073V16.344H130.249L133.702 21.3653H136.596V21.216L133.012 16.0827L133.03 15.952C133.852 15.6533 134.533 15.1711 135.074 14.5053C135.616 13.8396 135.886 13.0773 135.886 12.2187C135.886 11.4098 135.7 10.6849 135.326 10.044C134.953 9.40311 134.427 8.90222 133.749 8.54133C133.071 8.18044 132.296 8 131.425 8ZM131.406 14.0293C131.979 14.0293 132.445 13.8551 132.806 13.5067C133.167 13.1582 133.348 12.7164 133.348 12.1813C133.348 11.6711 133.176 11.2356 132.834 10.8747C132.492 10.5138 132.028 10.3333 131.444 10.3333H129.073V14.0293H131.406ZM141.156 8H138.636V21.3653H141.156V17.4453L142.668 15.672L146.663 21.3653H149.743V21.216L144.404 13.6747L149.239 8.14933V8H146.196L141.306 13.7307H141.156V8Z" fill="white"/>
<circle cx="12.5" cy="12.5" r="12.5" fill="#5267DF"/>
<path fill-rule="evenodd" clip-rule="evenodd" d="M11 7C9.89543 7 9 7.89543 9 9V19L12.5395 15.5609L16.0789 19V9C16.0789 7.89543 15.1835 7 14.0789 7H11Z" fill="white"/>
</svg>
